<svg viewBox="0 0 16 16" fill="#000000" xmlns="http://www.w3.org/2000/svg" id="Translate--Streamline-Remix" height="16" width="16">
  <desc>
    Translate Streamline Icon: https://streamlinehq.com
  </desc>
  <path d="M3.333333333333333 10v1.3333333333333333c0 0.7029333333333333 0.54392 1.2788 1.2338266666666666 1.3296666666666666L4.666666666666666 12.666666666666666h2v1.3333333333333333H4.666666666666666c-1.47276 0 -2.6666666666666665 -1.1939333333333333 -2.6666666666666665 -2.6666666666666665v-1.3333333333333333h1.3333333333333333Zm8.666666666666666 -3.333333333333333 2.9333333333333336 7.333333333333333h-1.4366666666666665l-0.8006666666666666 -2h-2.7266666666666666l-0.7993333333333333 2h-1.436L10.666666666666666 6.666666666666666h1.3333333333333333Zm-0.6666666666666666 1.9234666666666667L10.501999999999999 10.666666666666666h1.6613333333333333L11.333333333333332 8.590133333333332ZM5.333333333333333 1.3333333333333333v1.3333333333333333h2.6666666666666665v4.666666666666666H5.333333333333333v2H4v-2H1.3333333333333333V2.6666666666666665h2.6666666666666665V1.3333333333333333h1.3333333333333333Zm6 0.6666666666666666c1.4727333333333332 0 2.6666666666666665 1.1939066666666664 2.6666666666666665 2.6666666666666665v1.3333333333333333h-1.3333333333333333V4.666666666666666c0 -0.73638 -0.5969333333333333 -1.3333333333333333 -1.3333333333333333 -1.3333333333333333h-2V2h2ZM4 4H2.6666666666666665v2h1.3333333333333333V4Zm2.6666666666666665 0H5.333333333333333v2h1.3333333333333333V4Z" stroke-width="0.6667"></path>
</svg>